<?xml version="1.0" encoding="utf-8"?>
<!-- Uploaded to: SVG Repo, www.svgrepo.com, Generator: SVG Repo Mixer Tools -->
<svg width="800px" height="800px" viewBox="0 0 20.2 20.2" xmlns="http://www.w3.org/2000/svg">
  <g id="medical-receipt-3" transform="translate(-2 -2)">
    <rect id="secondary" fill="#2ca9bc" width="10.66" height="5" rx="2.5" transform="translate(10.968 18.501) rotate(-45)"/>
    <path id="primary" d="M7,8h6M7,12h4m5.73.73a2.52,2.52,0,0,1,3.54,0h0a2.52,2.52,0,0,1,0,3.54l-4,4a2.52,2.52,0,0,1-3.54,0h0a2.52,2.52,0,0,1,0-3.54ZM18.2,18.2l-3.4-3.4" fill="none" stroke="#000000" stroke-linecap="round" stroke-linejoin="round" stroke-width="2"/>
    <path id="primary-2" data-name="primary" d="M8,21H4a1,1,0,0,1-1-1V4A1,1,0,0,1,4,3H16a1,1,0,0,1,1,1V8" fill="none" stroke="#000000" stroke-linecap="round" stroke-linejoin="round" stroke-width="2"/>
  </g>
</svg>